<!-- Generated by IcoMoon.io -->
<svg version="1.1" xmlns="http://www.w3.org/2000/svg" viewBox="0 0 48 48">
<path fill = "currentColor"  d="M25.406 0.188q0.281 0.094 0.844 0.094l1.594 0.281q12.094 2.063 17.531 12.75 3.469 6.844 2.344 14.25-1.031 7.125-5.906 12.563-5.063 5.625-12.469 7.313-6.375 1.406-12.563-0.609t-10.5-6.797-5.578-11.156 0.703-12.281 6.563-10.125 10.875-5.625q0.75-0.188 2.438-0.469l1.406-0.188h2.719zM40.781 24.094q0-4.5-2.25-8.344t-6.047-6.094-8.344-2.25-8.391 2.25-6.094 6.094-2.25 8.344 2.25 8.344 6.047 6.094 8.344 2.25 8.391-2.25 6.094-6.094 2.25-8.344zM37.313 24.094q0 3.563-1.781 6.609t-4.828 4.828-6.609 1.781-6.609-1.781-4.828-4.828-1.781-6.609 1.781-6.609 4.828-4.828 6.609-1.781 6.609 1.781 4.828 4.828 1.781 6.609zM15.844 24.094q0 3.469 2.438 5.859t5.859 2.391 5.813-2.391 2.391-5.813-2.391-5.859-5.859-2.438-5.859 2.438-2.391 5.813zM19.125 24.094q0-2.063 1.453-3.516t3.516-1.453 3.516 1.453 1.453 3.516-1.453 3.563-3.516 1.5-3.516-1.5-1.453-3.563z"></path>
</svg>
