<!-- Generated by IcoMoon.io -->
<svg version="1.1" xmlns="http://www.w3.org/2000/svg" viewBox="0 0 48 48">
<path  fill = "currentColor" d="M24.094 7.219q4.5 0 8.344 2.297t6.094 6.141 2.25 8.391-2.25 8.344-6.094 6.094-8.391 2.297-8.391-2.297-6.094-6.141-2.25-8.391 2.25-8.391 6.094-6.094 8.438-2.25zM32.344 33.656h2.438q0.281 0 0.469-0.188 1.688-2.063 2.625-4.5 0.094-0.281-0.094-0.563l-2.438-4.219q-0.094-0.188 0-0.375l2.438-4.313q0.188-0.188 0.094-0.375-0.844-2.531-2.625-4.594-0.188-0.188-0.469-0.188h-4.875q-0.281 0-0.375-0.281l-2.438-4.219q-0.094-0.188-0.375-0.281-2.625-0.469-5.25 0-0.281 0.094-0.375 0.281l-2.438 4.313q-0.188 0.188-0.375 0.188h-4.875q-0.281 0-0.469 0.188-1.688 2.063-2.625 4.5-0.094 0.281 0.094 0.563l2.438 4.219q0.094 0.188 0 0.375l-2.531 4.313q-0.094 0.188 0 0.375 0.844 2.438 2.625 4.594 0.188 0.188 0.375 0.188h4.875q0.281 0 0.469 0.281l2.438 4.219q0.094 0.188 0.375 0.281 2.531 0.469 5.25 0 0.188-0.094 0.375-0.281l2.438-4.219q0.094-0.281 0.375-0.281h2.438zM24.094 29.625h-3q-0.281 0-0.375-0.281l-3-5.156q-0.094-0.188 0-0.375l3-5.156q0.094-0.281 0.375-0.281h6q0.188 0 0.375 0.281l2.906 5.156q0.188 0.188 0 0.375l-2.906 5.156q-0.188 0.281-0.375 0.281h-3zM24.75 0.563h-2.625v5.063h3.563v-5.063h-0.938zM24.75 42.375h-2.625v5.063h3.563v-5.063h-0.938zM46.219 21.938h-4.031v3.656h5.063v-3.656h-1.031zM4.969 21.938h-4.031v3.656h5.063v-3.656h-1.031z"></path>
</svg>
