<!-- Generated by IcoMoon.io -->
<svg version="1.1" xmlns="http://www.w3.org/2000/svg"  viewBox="0 0 48 48">
<path  fill = "currentColor" d="M47.813 23.719q-6-7.594-13.5-11.625-4.5-2.438-9-2.719-4.875-0.375-9.891 1.781t-9.984 6.75q-3.281 3-5.531 6l0.188 0.375q2.063 2.625 4.781 5.25 5.813 5.438 11.719 7.688 5.063 1.969 9.938 1.219 4.406-0.563 9-3.188 5.813-3.469 10.875-9.281l1.594-1.969zM24 35.625q-3.281 0-5.906-1.547t-4.172-4.219-1.547-5.906 1.5-5.859 4.172-4.172 5.906-1.547 5.859 1.5 4.172 4.172 1.547 5.906-1.547 5.906-4.172 4.172-5.813 1.594zM15.75 27.563q0.656 1.781 2.391 3.281t3.984 1.969l2.906-5.25h-9.281zM18.375 19.688q0.281 0.656 1.031 1.875l0.844 1.5 4.688-8.063h-2.063q-3.188 0.375-5.438 2.813-0.188 0.094-0.094 0.281zM22.875 20.344h9.281v-0.188q-1.969-3.844-6.094-4.969-0.188 0-0.281 0.094zM27.656 24.844l-2.25 3.938-2.344 4.125h1.5q3.469-0.188 6-2.813 0.094-0.188 0-0.281zM21.281 26.625q-0.938-1.594-2.813-4.875l-1.781-3.094-0.094 0.094q-2.438 3.563-1.313 7.781 0.094 0.188 0.281 0.188zM26.625 21.188q1.969 3.469 4.688 7.969l0.094-0.094q2.344-3.563 1.219-7.594-0.094-0.281-0.281-0.281h-5.719zM25.406 26.719q0.188 0 0.281-0.188l1.406-2.531v-0.188l-1.5-2.438q-0.094-0.188-0.188-0.188h-2.906q-0.094 0-0.188 0.188l-1.5 2.438v0.281l1.5 2.438q0.094 0.188 0.188 0.188h2.906z"></path>
</svg>
