<!-- Generated by IcoMoon.io -->
<svg version="1.1" xmlns="http://www.w3.org/2000/svg" viewBox="0 0 48 48">
<path fill = "currentColor"  d="M33.094 14.813l3.188-5.063-9.469 2.531-2.625-1.125-14.156 2.813-2.156 2.531-7.594 3 1.219 0.938-0.188 2.156 4.406 2.813 1.594-0.094q-0.094 0.75 0.141 1.359t1.078 1.641l0.844 0.938-0.188-1.406q-0.188-1.688-0.094-2.719l2.906-0.188 6.281 5.25-1.875 3.656-2.625-0.375 1.969 1.688-0.844 1.781 5.531 0.844 4.5-3.75 4.594 1.594 18.188-14.719zM14.344 18.844l-4.313-0.938 7.031-2.813 0.844 0.563z"></path>
</svg>
