<!-- Generated by IcoMoon.io -->
<svg version="1.1" xmlns="http://www.w3.org/2000/svg" viewBox="0 0 48 48">
<path  fill = "currentColor" d="M14.438 25.125h19.594v7.125h-19.594v-7.125zM0.188 25.125h11.906v7.125h-11.906v-7.125zM14.438 6h19.594v7.125h-19.594v-7.125zM0.281 15.656h20.438v7.125h-20.438v-7.125zM23.063 15.656h24.656v7.125h-24.656v-7.125zM0.281 34.781h20.438v7.125h-20.438v-7.125zM22.969 34.875h24.75v7.031h-24.75v-7.031zM0.281 6h11.813v7.125h-11.813v-7.125zM36.094 25.125h11.625v7.125h-11.625v-7.125zM36.094 6h11.625v7.125h-11.625v-7.125z"></path>
</svg>
