<!-- Generated by IcoMoon.io -->
<svg version="1.1" xmlns="http://www.w3.org/2000/svg"  viewBox="0 0 48 48">
<path  fill = "currentColor" d="M24.938 11.25q-1.125-1.125-2.672-1.125t-2.625 1.078-1.078 2.625 1.078 2.625 2.625 1.078 2.625-1.078 1.078-2.625-1.031-2.578zM28.594 26.156q-0.656-0.188-1.313 0.141t-0.844 1.031 0.188 1.313 1.031 0.797 1.266-0.141 0.797-0.984-0.141-1.313-0.984-0.844zM38.156 17.813q-0.938-0.281-1.781 0.141t-1.172 1.313 0.094 1.781 1.359 1.172 1.781-0.141 1.172-1.313-0.094-1.781-1.359-1.172zM43.031 9.281q-1.781-3-5.719-5.438-5.719-3.563-12.75-3.375-4.688 0.188-8.25 1.875-5.25 2.531-7.781 8.25-0.938 2.156-1.688 6.844l-4.219 12.188 4.219-0.094 0.094 10.125h9.469v8.063l21.656-0.094-0.094-6.375q0-3.656 1.875-7.031 0.656-1.219 1.594-2.531 3.563-4.875 4.125-10.125 0.75-6.844-2.531-12.281zM19.969 21.375q-0.75-0.188-1.5-0.563l-1.969 1.219-2.625-2.531 1.406-1.875q-0.375-0.75-0.656-1.5l-2.344-0.469v-3.75l2.344-0.281q0.188-0.844 0.656-1.688l-1.406-1.781 2.625-2.625 1.969 1.313q0.75-0.375 1.594-0.656l0.375-2.25h3.656l0.469 2.344q0.844 0.188 1.594 0.656l1.781-1.313 2.531 2.625-1.313 1.875q0.469 0.75 0.656 1.594l2.438 0.469-0.094 3.656-2.438 0.375q-0.188 0.75-0.563 1.406l1.313 2.063-2.625 2.531-1.875-1.406q-0.75 0.375-1.5 0.563l-0.469 2.438-3.656 0.094zM32.156 29.813l-1.031-0.094q-0.188 0.375-0.469 0.656l0.375 1.031-1.5 0.75-0.656-0.844q-0.375 0.094-0.75 0.094l-0.469 1.031-1.688-0.469 0.188-1.125q-0.281-0.188-0.563-0.469l-1.031 0.375-0.844-1.406 0.844-0.75q-0.094-0.375-0.094-0.75l-0.938-0.469 0.469-1.688 1.031 0.188q0.188-0.375 0.469-0.563l-0.375-1.125 1.5-0.75 0.656 0.844q0.375-0.094 0.844-0.094l0.375-1.031 1.594 0.469v1.125q0.281 0.188 0.563 0.469l1.031-0.375 0.75 1.5-0.75 0.656v0.844l0.938 0.375zM42.844 23.063l-1.406-0.188q-0.281 0.375-0.75 0.75l0.469 1.5-2.063 0.938-0.938-1.219q-0.469 0.094-0.938 0.094l-0.75 1.313-2.156-0.75 0.281-1.5q-0.469-0.281-0.75-0.656l-1.5 0.469-1.031-2.063 1.219-0.938q-0.094-0.469-0.094-1.031l-1.313-0.75 0.75-2.156 1.406 0.281q0.375-0.469 0.75-0.75l-0.469-1.5 2.063-1.031 0.844 1.219q0.563-0.094 1.125-0.094l0.656-1.313 2.156 0.75-0.094 1.5q0.375 0.281 0.75 0.656l1.406-0.375 1.031 2.063-1.219 0.844q0.094 0.563 0.094 1.125l1.219 0.563z"></path>
</svg>
