<!-- Generated by IcoMoon.io -->
<svg version="1.1" xmlns="http://www.w3.org/2000/svg" viewBox="0 0 48 48">
<path  fill = "currentColor" d="M18.094 16.781h16.031q-0.188-4.406-2.297-8.063t-5.578-5.813-7.547-2.156-7.547 2.156-5.578 5.813-2.297 8.063h14.813zM18.281 26.156l-14.156 2.531 0.844 11.156 13.688 7.406 13.313-7.594 1.031-10.875zM33.75 23.719l-0.938 6.75 6 7.969v-3.844l6.094 3.844zM5.813 19.5q0 0.469 0.094 1.406l5.813 3.281 0.938-0.469q1.031-0.563 1.688-1.219 1.031-0.844 1.219-1.688zM31.594 19.5l-0.094 1.406-5.813 3.281-0.938-0.469q-1.031-0.563-1.781-1.219-0.938-0.844-1.125-1.688z"></path>
</svg>
