<!-- Generated by IcoMoon.io -->
<svg version="1.1" xmlns="http://www.w3.org/2000/svg"  viewBox="0 0 48 48">
<path  fill = "currentColor" d="M40.875 13.406q-0.75 0.375-1.594 0.75-1.781 0.844-3.281 1.406-2.25 0.75-3.563 0.75-3.469 0.094-8.438 0.094t-8.438-0.094q-1.875 0-5.344-1.5-1.688-0.656-3.094-1.406l-6.938-9.469 2.156 15.469 9.938 5.531 4.781 14.156-1.313 0.75 1.406 4.219 6.844-0.094 6.844 0.094 1.406-4.219-1.313-0.75 4.781-14.156 9.938-5.531 2.156-15.469zM19.031 28.875l-2.813-1.313-1.688-2.625 6.469 2.063zM31.781 27.563l-2.813 1.313-1.969-1.875 6.469-2.063z"></path>
</svg>
