<!-- Generated by IcoMoon.io -->
<svg version="1.1" xmlns="http://www.w3.org/2000/svg" viewBox="0 0 48 48">
<path  fill = "currentColor" d="M43.406 14.531l-2.156 3.563-3.375 0.844-9.094 22.688-0.75 0.563-0.938-7.313-1.125 8.063-1.688 0.75-1.688-0.75-1.125-8.063-0.938 7.313-0.75-0.563-9.094-22.688-3.375-0.844-2.156-3.563-0.188 3.375 12.844 27.469 6.469 1.969 6.469-1.969 12.844-27.469zM12.75 18.75l6.656 11.531-1.125-9.844 2.813 0.844 3.188-2.531 3.188 2.531 2.813-0.844-1.125 9.844 6.656-11.531 4.688-1.5 2.813-5.531-0.938-3.188-1.875 1.406-0.188-3.188-0.938-0.656-1.219 5.344-1.5 0.75h-2.156l-0.375-1.406 3.094-3.375 2.156-4.594-5.813-2.156-2.906 2.438-6.375 1.219-6.375-1.219-2.906-2.438-5.813 2.156 2.156 4.594 3.094 3.375-0.375 1.406h-2.156l-1.594-0.844-1.125-5.156-0.938 0.563-0.188 3.188-1.875-1.406-0.938 3.188 2.813 5.531zM28.594 16.781l1.125 1.125-1.125 1.5-2.344-1.875zM19.969 16.781l2.344 0.75-2.344 1.875-1.125-1.5z"></path>
</svg>
