<!-- Generated by IcoMoon.io -->
<svg version="1.1" xmlns="http://www.w3.org/2000/svg"  viewBox="0 0 48 48">
<path  fill = "currentColor" d="M44.906 18.281l3.094-8.25-20.156 12.938-3.375 8.625-0.469-0.656-0.469 0.656-3.469-8.625-20.156-12.938 3.094 8.25 15.75 6.375 0.188 0.375-14.719-3.844 3.094 5.25 12.375 0.656 0.188 0.375-11.719 0.75 4.5 2.813 7.781-2.063 0.188 0.281-7.031 3.281 5.156 0.469 2.719-2.156 0.188 0.375-1.875 6.656 3.375-3.375 0.844 1.875 0.844-1.875 3.281 3.375-1.875-6.656 0.188-0.375 2.813 2.156 5.156-0.469-7.031-3.281 0.094-0.281 7.875 2.063 4.406-2.813-11.719-0.75 0.188-0.375 12.375-0.656 3.188-5.25-14.719 3.844 0.188-0.375zM23.906 19.781q-1.031 0-1.734 0.703t-0.703 1.734v0.094l2.531 5.813 2.344-5.719v-0.188q0-1.031-0.703-1.734t-1.734-0.703zM23.906 23.719l-0.844-1.688 0.844 0.469 0.844-0.469z"></path>
</svg>
