<!-- Generated by IcoMoon.io -->
<svg version="1.1" xmlns="http://www.w3.org/2000/svg"  viewBox="0 0 48 48">
<path fill = "currentColor"  d="M40.875 14.719q0-1.594-0.188-3.75-0.281-3.656-0.938-4.031-0.563-0.563-1.406-0.563-0.563 0-1.078 0.328t-0.703 0.891l-0.094 0.281-0.188 10.125h-0.656l-0.469-10.125-0.281-4.688q-0.094-0.375-0.281-0.656-0.656-1.125-1.875-1.125t-1.875 0.938q-0.375 0.375-0.375 1.031l-0.375 14.625h-0.75l-0.656-15.75q0.094-0.75-0.375-1.125-0.75-1.125-2.063-1.125-0.938 0-1.641 0.656t-0.797 1.594l-0.375 15.844-0.75-0.094-0.469-14.719q-0.094-0.844-0.469-1.219-0.75-1.125-2.156-1.125-0.844 0-1.547 0.469t-0.984 1.313q-0.188 0.375-0.188 0.844l0.094 21.375-7.688-5.438-0.75 0.563q-0.75 0.844-1.125 1.781-0.469 1.406 0 2.906 0.656 1.969 2.813 4.125 2.813 2.813 4.781 4.5 1.5 1.219 2.438 1.875l0.656 0.375v4.875l13.125 2.156h-13.125l-0.094 5.25 18.656 0.094v-6.844l-0.375-2.156 1.406-4.125q1.594-4.594 2.25-7.031 0.844-3.094 0.938-12.281v-0.844z"></path>
</svg>
