<!-- Generated by IcoMoon.io -->
<svg version="1.1" xmlns="http://www.w3.org/2000/svg" viewBox="0 0 48 48">
<path fill = "currentColor"  d="M38.906 28.125l-3.75 0.094-2.719-13.125-0.094-0.656q0.375-1.219 0.375-2.625 0-2.625-1.406-4.781t-3.656-3.188q-0.938-0.469-1.781-0.656l-0.563-0.188v-3h-2.906v3.094l-0.375 0.094q-1.031 0.281-1.969 0.844-2.156 1.031-3.469 3.141t-1.313 4.641q0 1.313 0.281 2.531l-2.813 13.875h-3.656l0.844 2.531h2.344l-1.5 7.125 1.031 0.094-0.656 10.219h0.094l2.625-9.844q0.375 0.188 0.797 0.188t0.797-0.375 0.375-0.844q0-0.844-0.75-1.219l1.875-5.156q0.094-0.281 0.469-0.281l5.625 0.094v1.594h1.875v-1.594l5.719-0.094q0.281 0 0.375 0.375l1.781 4.875q0.094 0.281 0 0.375-0.656 0.375-0.656 1.031t0.375 1.031 0.844 0.375 0.75-0.188l2.625 9.656h0.094l-0.656-10.219 1.031-0.188-1.5-7.125h2.344zM23.906 6.656q1.969 0 3.375 1.406t1.406 3.422-1.406 3.422-3.422 1.406-3.422-1.406-1.406-3.422 1.406-3.422 3.469-1.406zM29.906 28.125h-4.969v-1.5h-1.875v1.5h-5.063l2.719-7.688q0.094-0.375 0.375-0.281l0.844 0.188q2.063 0.563 4.031 0l0.938-0.281q0.188 0 0.188 0.281l2.813 7.688v0.094z"></path>
</svg>
