<!-- Generated by IcoMoon.io -->
<svg version="1.1" xmlns="http://www.w3.org/2000/svg" viewBox="0 0 48 48">
<path fill="currentColor" d="M34.031 31.031h-0.469l-2.813 0.469q-3.938 0.75-6.094 0.938-3.563 0.469-7.125 0.469-2.25 0-4.594-0.188-6.469-0.469-12.75-2.531l0.094 0.094q0.75 1.031 1.406 1.219 0.938 0.375 0.938 0.938l0.094 0.656q0.094 0.375 0.188 0.469 0.656 0.281 1.219 0.281 0.094-0.094 0.328-0.703t0.375-0.703 0.984 0.188l0.094 0.094q0.75 0.188 0.938 0.375t0.188 0.563l0.094 0.75q0 0.188 0.141 0.281t0.516 0.188h0.656q0.281 0.094 0.375-0.281l0.375-0.938q0.188-0.469 0.75-0.375l2.719 0.281q0.844 0.094 1.219 0.281 0.563 0.281 0.75 0.938v0.188q0.188 0.75 0.469 0.75 0.656 0.094 1.406 0.094 0.188-0.094 0.281-0.281l0.375-0.938q0.188-0.375 0.563-0.281h1.969q0.281 0 0.375 0.234t0.188 0.422l0.188 0.375q0.281 0.469 0.656 0.469h0.563q0.469 0 0.656-0.469 0.094-0.281 0.375-0.656l0.188-0.375q0.094-0.188 0.281-0.281 0.75-0.375 1.875-0.469t3.281-0.188l5.25-0.094q0.656 0.094 0.938 0.188t0.375 0.469l0.281 0.844q0.094 0.563 0.375 0.656 1.219 0.281 2.25 0 0.188-0.094 0.281-0.375l0.188-0.844q0.281-0.656 0.469-0.891t0.844-0.141h0.469q0.75 0 0.891 0.609t0.234 1.266q0.094 0.281 0.75 0.281 1.031-0.094 1.781-0.281 0.188-0.094 0.375-0.469l0.563-1.594q0.094-0.281 0.375-0.375 1.219-0.281 2.016-1.172t0.984-2.109v-0.938q-4.594 1.125-13.969 2.625v0zM30.563 30.375q0.469 0 1.313-0.188l6.938-1.406q6.188-1.313 9-2.063l-0.094-0.938q-0.469-3.281-2.156-7.219-0.188-0.656-1.031-1.313-0.375-0.375-0.844-0.234t-0.75 0.609l-0.094 0.281q-0.188 0.75-0.375 1.031-0.563 0.938-0.844 1.313-0.563 0.75-1.313 0.938-0.375 0.188-1.219 0.281h-0.469q-1.219 0.281-3-0.375-1.5-0.563-3.938-2.25l-0.656-0.469q-0.281-0.188-0.188-0.563 0.188-0.563 0.188-1.031-0.094-0.844-0.281-2.719v0q-0.094-0.469-0.234-0.516t-0.516 0.141l-3.375 2.438q-0.281 0.281-0.469 0.188-1.031-0.188-1.594 0.75-0.188 0.375-0.75 0.656l-2.813 1.969h-0.281q-0.469-0.188-0.75 0.047t-0.656 0.703v0q-0.563 0.75-1.406 0.844-0.188 0-0.469 0.188l-0.75 0.75q-0.375 0.281-0.469 0.281-0.656-0.094-1.406 0.469-0.281 0.281-0.563 0.281t-0.563 0.281l-0.563 0.281q-1.969 0.656-6 1.406l-0.281 0.094q-2.813 0.469-4.453 1.125t-2.297 2.438l-0.094 0.188q5.813 1.969 12.938 2.531 5.063 0.375 9.75-0.094 3-0.281 7.875-1.125z"></path>
</svg>
