<!-- Generated by IcoMoon.io -->
<svg version="1.1" xmlns="http://www.w3.org/2000/svg"  viewBox="0 0 48 48">
<path fill = "currentColor" d="M39.281 27.375l-5.531 3.938 2.344 0.844q-1.125 2.25-3.281 3.563t-4.781 1.313q-0.656 0-1.406-0.094l-0.469-21.469h7.594l2.25-3.469h-9.938l-0.094-2.906q1.219-0.656 1.922-1.781t0.703-2.438q0-1.969-1.359-3.375t-3.234-1.406h-0.094q-1.875 0-3.234 1.406t-1.359 3.375q0 1.313 0.703 2.438t1.922 1.781l-0.094 2.906h-9.938l2.156 3.469h7.688l-0.469 21.469q-0.75 0.094-1.406 0.094-2.625 0-4.781-1.313t-3.281-3.563l2.344-0.844-5.531-3.938-1.969 6.469 2.531-0.844q0.375 3.188 2.719 5.719t5.438 3.188q2.25 0.563 3.984 2.063t2.578 3.75v0l0.094 0.094v-0.094q0.844-2.25 2.578-3.75t3.984-2.063q3.094-0.656 5.438-3.188t2.719-5.719l2.531 0.844zM25.313 6.281q-0.563 0.563-1.359 0.563t-1.406-0.563-0.609-1.359 0.469-1.359l0.281-0.281q0.563-0.469 1.266-0.469t1.266 0.469l0.281 0.281q0.469 0.563 0.469 1.359t-0.656 1.359z"></path>
</svg>
