<!-- Generated by IcoMoon.io -->
<svg version="1.1" xmlns="http://www.w3.org/2000/svg" viewBox="0 0 44 44">
    <path fill="currentColor"
          d="M34.218 26.766c-1.877 3.116-4.4 5.312-7.57 6.763-0.796 0.365-1.633 0.646-2.458 0.945-0.161 0.059-0.376 0.081-0.533 0.027-2.123-0.736-4.167-1.629-5.959-3.022-1.683-1.309-3.055-2.892-4.142-4.716-1.589-2.667-2.514-5.558-2.988-8.625-0.356-2.295-0.503-4.594-0.406-6.903 0.054-1.303 0.27-2.601 0.449-3.896 0.019-0.136 0.261-0.287 0.429-0.348 2.88-1.026 5.766-2.039 8.65-3.057 1.277-0.45 2.548-0.919 3.831-1.349 0.225-0.076 0.522-0.065 0.747 0.015 3.143 1.1 6.28 2.221 9.418 3.333 0.985 0.349 1.97 0.699 2.961 1.028 0.441 0.146 0.622 0.38 0.648 0.877 0.076 1.418 0.216 2.832 0.368 4.245 0.042 0.39-0.048 0.557-0.432 0.678-0.783 0.246-1.545 0.558-2.366 0.863-0.037-0.119-0.096-0.23-0.1-0.344-0.057-1.199-0.087-2.4-0.176-3.596-0.013-0.182-0.258-0.435-0.45-0.505-2.665-0.973-5.339-1.92-8.011-2.874-0.207-0.073-0.437-0.116-0.615-0.234-1.379-0.913-2.664-0.195-3.942 0.243-2.565 0.881-5.108 1.823-7.671 2.706-0.464 0.16-0.697 0.4-0.732 0.873-0.038 0.533-0.138 1.067-0.123 1.597 0.052 1.865 0.012 3.746 0.246 5.589 0.455 3.596 1.581 6.977 3.886 9.858 1.639 2.050 3.74 3.492 6.187 4.409 0.353 0.132 0.852 0.070 1.22-0.069 2.636-0.994 4.783-2.648 6.47-4.905 0.101-0.136 0.333-0.298 0.465-0.269 0.889 0.19 1.768 0.428 2.7 0.664z"></path>
    <path fill="currentColor"
          d="M23.789 7.816c0.018 0.12 0.057 0.256 0.057 0.393 0.032 4.684 0.066 9.367 0.087 14.051 0.010 2.147-0.006 4.296-0.011 6.443-0.001 0.525-0.153 0.605-0.642 0.379-3.28-1.518-5.43-4.041-6.724-7.387-0.844-2.183-1.309-4.428-1.417-6.754-0.056-1.2-0.079-2.403-0.060-3.603 0.003-0.23 0.22-0.591 0.422-0.664 2.699-0.985 5.414-1.929 8.125-2.881 0.030-0.010 0.069 0.009 0.165 0.023z"></path>
    <path fill="currentColor"
          d="M25.936 19.527c1.337 0.368 2.587 0.705 3.833 1.056 2.024 0.57 4.046 1.151 6.070 1.724 1.196 0.339 2.401 0.646 3.584 1.022 0.422 0.133 0.6 0.047 0.752-0.339 0.199-0.508 0.445-0.998 0.747-1.665 0.9 1.936 1.731 3.724 2.596 5.584-1.938 0.569-3.837 1.127-5.901 1.733 0.342-0.77 0.613-1.374 0.914-2.053-0.516-0.161-1.008-0.336-1.509-0.468-2.246-0.596-4.495-1.185-6.746-1.767-1.257-0.325-2.518-0.633-3.778-0.943-0.37-0.091-0.598-0.228-0.578-0.698 0.045-1.045 0.013-2.094 0.013-3.183z"></path>
    <path fill="currentColor"
          d="M26.061 18.070c5.041-1.803 9.989-3.573 14.938-5.342 0.022 0.039 0.043 0.078 0.066 0.116-0.29 0.204-0.584 0.404-0.872 0.611-2.783 1.998-5.568 3.992-8.342 6.004-0.306 0.221-0.575 0.252-0.919 0.151-1.545-0.454-3.094-0.892-4.641-1.34-0.048-0.013-0.082-0.069-0.23-0.2z"></path>
</svg>
