<!-- Generated by IcoMoon.io -->
<svg version="1.1" xmlns="http://www.w3.org/2000/svg" viewBox="5 0 40 40">
<path fill="currentColor" d="M8.356 21.126c0.124-0.531 0.267-1.065 0.366-1.607 0.054-0.298 0.164-0.308 0.442-0.263 1.985 0.325 3.985 0.568 5.958 0.951 0.711 0.138 1.256-0.11 1.856-0.312 1.518-0.51 2.897-1.239 4.010-2.427 0.115-0.123 0.427-0.165 0.605-0.11 0.968 0.303 1.922 0.648 2.958 1.006 0.24-0.945 0.517-1.832 0.679-2.741 0.113-0.631 0.377-1.024 0.971-1.285 1.953-0.857 3.883-1.764 5.832-2.627 0.429-0.19 0.444-0.359 0.175-0.711-0.765-0.998-1.501-2.019-2.283-3.078 0.521-0.4 1.004-0.795 1.523-1.142 0.084-0.056 0.359 0.065 0.477 0.177 1.597 1.523 3.183 3.056 4.769 4.592 0.592 0.573 0.595 0.591-0.118 1.028-1.835 1.125-3.679 2.237-5.517 3.356-0.142 0.087-0.278 0.185-0.541 0.361 1.388 0.302 2.62 0.576 3.855 0.837 1.827 0.388 2.886 2.522 2.060 4.187-1.028 2.072-2.058 4.144-3.113 6.204-0.217 0.425-0.072 0.553 0.305 0.701 0.628 0.245 1.234 0.548 1.899 0.847-0.73 0.743-1.391 1.424-2.067 2.090-0.071 0.070-0.239 0.089-0.344 0.063-0.78-0.197-1.564-0.385-2.33-0.629-0.915-0.291-1.52-1.372-1.306-2.33 0.356-1.589 0.745-3.17 1.118-4.756 0.065-0.276 0.122-0.554 0.193-0.883-0.952-0.167-1.881-0.351-2.815-0.49-1.157-0.172-2.341-0.212-3.471-0.482-1.311-0.314-2.501-0.081-3.722 0.345-1.263 0.442-2.544 0.849-3.84 1.173-0.414 0.103-0.914-0.081-1.362-0.189-2.384-0.577-4.764-1.171-7.143-1.76-0.014-0.003-0.022-0.027-0.077-0.099z"></path>
<path fill="currentColor" d="M12.86 12.409c-0.164-0.118-0.401-0.202-0.48-0.363-0.363-0.733-1.146-0.871-1.804-0.394-0.624 0.452-0.518 1.040-0.317 1.54 0.144 0.358 0.582 0.65 0.953 0.851 0.344 0.188 1.193-0.521 1.283-1.065 1.416 0.302 2.828 0.603 4.241 0.903l-0.024 0.138c-0.794-0.068-1.589-0.134-2.383-0.204-0.396-0.035-0.848-0.205-1.166-0.066-0.252 0.11-0.32 0.609-0.505 0.915-0.241 0.399-0.498 0.789-0.788 1.153-0.078 0.098-0.328 0.14-0.456 0.092-0.124-0.047-0.226-0.229-0.28-0.372-0.15-0.4 0.002-0.901-0.499-1.182-0.662-0.371-1.391-0.383-1.868 0.205-0.24 0.295-0.343 0.855-0.252 1.232 0.146 0.602 0.652 0.756 1.174 0.733 0.512-0.023 1.033 0.088 1.543 0.179 1.176 0.209 2.348 0.442 3.522 0.665-0.003 0.049-0.006 0.098-0.011 0.148-0.48-0.021-0.96-0.041-1.439-0.063-1.516-0.070-3.032-0.181-4.55-0.199-2.184-0.025-4.053-1.597-4.348-3.82-0.293-2.214 1.237-4.331 3.443-4.715 0.766-0.133 1.618 0.015 2.393 0.195 1.269 0.297 2.507 0.726 3.757 1.102 0.025 0.008 0.036 0.058 0.121 0.204-0.592-0.099-1.105-0.165-1.608-0.274-1.016-0.219-2.030-0.456-3.042-0.698-0.879-0.211-1.404 0.045-1.549 0.922-0.051 0.313 0.208 0.704 0.391 1.021 0.206 0.359 1.383 0.518 1.688 0.234 0.294-0.273 0.798-0.435 0.645-1.014-0.008-0.029 0.236-0.189 0.349-0.175 0.417 0.049 0.997 0.005 1.205 0.254 0.403 0.486 0.594 1.146 0.873 1.733-0.071 0.062-0.142 0.124-0.213 0.185zM6.929 13.37c-0.772-0.009-1.576 0.597-1.559 1.176 0.011 0.408 1.010 1.508 1.359 1.499 0.607-0.017 1.306-0.788 1.341-1.48 0.015-0.29-0.846-1.192-1.142-1.195zM6.209 12.894c0.731-0.019 1.597-0.787 1.55-1.374-0.051-0.624-0.851-1.279-1.528-1.251-0.351 0.015-1.199 1.2-1.172 1.637 0.019 0.3 0.83 0.996 1.151 0.987z"></path>
<path fill="currentColor" d="M24.947 13.63c-0.072 1.095-0.227 1.963-0.911 2.613-0.685 0.653-1.32 0.907-2.19 0.415-1.409-0.797-2.449-1.934-2.788-3.578-0.205-0.995 0.292-2.026 1.13-2.61 1.699-1.185 4.048-0.22 4.449 1.666 0.118 0.56 0.234 1.118 0.31 1.493z"></path>
<path fill="currentColor" d="M45.628 18.965c-0.261 0.267-0.44 0.455-0.623 0.64-0.623 0.629-1.239 1.268-1.88 1.879-0.157 0.15-0.394 0.291-0.602 0.303-1.75 0.095-3.502 0.161-5.252 0.231-0.086 0.003-0.174-0.020-0.338-0.040 0.682-1.413 0.73-2.782-0.294-4.226 3.043 0.41 5.953 0.804 8.99 1.213z"></path>
</svg>
