<!-- Generated by IcoMoon.io -->
<svg version="1.1" xmlns="http://www.w3.org/2000/svg" viewBox="5 0 40 40">
<path fill="currentColor" d="M15.428 17.866c0.794-0.915 1.598-1.824 2.382-2.748 2.519-2.972 4.976-6 7.563-8.912 1.869-2.102 4.315-3.142 7.144-3.202 3.030-0.064 5.638 1.001 7.658 3.228 2.489 2.743 3.293 5.982 2.313 9.596-0.68 2.508-2.257 4.353-4.318 5.872-2.141 1.577-4.222 3.234-6.329 4.855-0.143 0.11-0.293 0.209-0.368 0.375 0.651-0.727 1.272-1.485 1.96-2.175 1.761-1.766 3.558-3.497 5.322-5.259 0.127-0.127 0.19-0.4 0.16-0.588-0.103-0.669-0.234-1.336-0.407-1.991-0.060-0.226-0.228-0.494-0.424-0.602-0.626-0.345-1.281-0.643-1.943-0.914-0.178-0.073-0.455-0.049-0.632 0.040-0.775 0.391-1.542 0.802-2.282 1.253-0.192 0.117-0.357 0.387-0.405 0.614-0.119 0.571-0.158 1.16-0.241 1.74-0.063 0.439 0.008 0.801 0.383 1.107 0.457 0.372 0.873 0.793 1.298 1.203 0.104 0.101 0.226 0.231 0.246 0.362 0.053 0.368-0.921 1.433-1.314 1.45-2.56 0.111-4.848-0.621-6.847-2.233-1.853-1.495-3.011-3.428-3.503-5.743-0.16-0.752-0.186-1.541-0.19-2.313 0-0.204 0.279-0.457 0.488-0.603 0.876-0.612 0.885-0.599 1.641 0.114 0.193 0.183 0.411 0.341 0.588 0.537 0.42 0.463 0.826 0.841 1.55 0.606 0.588-0.191 1.221-0.235 1.823-0.389 0.153-0.039 0.309-0.221 0.386-0.376 0.369-0.742 0.735-1.488 1.049-2.254 0.084-0.206 0.062-0.521-0.036-0.727-0.3-0.629-0.642-1.24-1.013-1.83-0.111-0.176-0.354-0.327-0.562-0.37-0.424-0.090-0.888-0.027-1.294-0.159-0.674-0.218-1.107 0.060-1.553 0.503-2.526 2.51-5.066 5.003-7.599 7.506-0.745 0.736-1.479 1.482-2.222 2.22-0.115 0.114-0.246 0.213-0.37 0.319-0.036-0.038-0.071-0.074-0.106-0.112zM32.935 4.229c-0.012 0.048-0.022 0.097-0.033 0.145q-1.425 0-2.063 1.275c-0.017 0.034-0.036 0.067-0.058 0.098-0.585 0.795-0.713 1.585 0.023 2.37 0.049 0.053 0.069 0.134 0.098 0.204 0.339 0.8 0.747 1.503 1.808 1.327 0.086-0.014 0.182 0.047 0.274 0.069 1.116 0.262 2.167 0.359 2.855-0.859 0.162-0.288 0.497-0.473 0.701-0.744 0.115-0.154 0.186-0.394 0.167-0.584-0.060-0.582-0.156-1.16-0.269-1.734-0.074-0.379-0.096-0.822-0.594-0.933-0.968-0.216-1.938-0.423-2.909-0.633zM41.495 12.876c0-1.255-0.211-2.329-0.677-3.27-0.104-0.211-0.331-0.465-0.54-0.504-0.741-0.142-1.496-0.217-2.248-0.273-0.175-0.012-0.403 0.111-0.538 0.242-0.54 0.533-1.061 1.088-1.57 1.65-0.088 0.097-0.151 0.279-0.129 0.406 0.144 0.852 0.293 1.706 0.492 2.549 0.047 0.201 0.262 0.393 0.446 0.525 0.209 0.15 0.471 0.224 0.706 0.339 1.526 0.751 1.512 0.723 3.015-0.038 0.762-0.386 1.334-0.801 1.046-1.624zM31.564 16.808c-0.056-0.094-0.12-0.274-0.242-0.396-0.35-0.348-0.767-0.636-1.078-1.013-0.614-0.746-1.303-1.144-2.273-0.735-0.016 0.007-0.038 0.001-0.056 0.005q-1.478 0.215-2.147 1.576c-0.166 0.338-0.345 0.677-0.451 1.035-0.056 0.189-0.040 0.465 0.064 0.624 0.78 1.192 1.799 2.142 3.056 2.82 0.137 0.074 0.375 0.082 0.512 0.012 0.655-0.333 1.296-0.693 1.928-1.068 0.143-0.086 0.294-0.262 0.322-0.418 0.139-0.78 0.24-1.566 0.368-2.442z"></path>
<path fill="currentColor" d="M11.699 22.596c0.71 0.431 1.096 1.024 1.199 1.74 0.139 0.972 0.171 1.961 0.247 2.943 0.015 0.199 0.018 0.399 0.163 0.658 0.554-0.682 1.123-1.353 1.659-2.050 1.537-2.001 3.059-4.014 4.591-6.019 0.327-0.427 0.839-0.55 1.186-0.3 0.41 0.296 0.474 0.738 0.132 1.242-0.873 1.284-1.764 2.555-2.646 3.833-0.405 0.588-0.39 0.641 0.297 1.127 0.887-0.84 1.782-1.687 2.676-2.534 0.678-0.641 1.349-1.29 2.038-1.919 0.39-0.355 0.848-0.345 1.167-0.016 0.296 0.304 0.278 0.817-0.060 1.184-1.418 1.539-2.825 3.090-4.272 4.602-0.408 0.426-0.448 0.746 0.042 1.164 0.471-0.305 0.966-0.609 1.443-0.937 1.168-0.802 2.327-1.617 3.492-2.424 0.439-0.304 1.001-0.239 1.274 0.137 0.271 0.372 0.171 0.866-0.262 1.195-1.602 1.216-3.214 2.418-4.805 3.647-0.152 0.117-0.305 0.415-0.258 0.568 0.102 0.336 0.366 0.168 0.606 0.082 0.939-0.334 1.884-0.65 2.832-0.961 0.448-0.146 0.904 0.060 1.020 0.472 0.126 0.444-0.105 0.727-0.506 0.883-1.14 0.444-2.286 0.869-3.417 1.332-0.262 0.108-0.534 0.294-0.698 0.519-0.808 1.102-1.856 1.846-3.183 2.136-0.564 0.123-1.166 0.090-1.751 0.096-0.127 0-0.278-0.118-0.379-0.218-1.485-1.478-2.967-2.955-4.433-4.451-0.137-0.141-0.241-0.405-0.221-0.597 0.256-2.351 0.538-4.698 0.825-7.139z"></path>
</svg>
