<!-- Generated by IcoMoon.io -->
<svg version="1.1" xmlns="http://www.w3.org/2000/svg" viewBox="0 0 48 48">
<path fill="currentColor" d="M2.161 15.349c1.821-1.926 3.588-3.833 5.413-5.686 0.272-0.277 0.804-0.361 1.23-0.412 1.442-0.169 2.892-0.269 4.335-0.424 0.83-0.089 1.612-0.124 2.385 0.336 0.853 0.509 1.791 0.876 2.661 1.359 0.43 0.239 0.591 0.090 0.737-0.285 0.241-0.617 0.46-1.246 0.762-1.831 0.126-0.243 0.414-0.483 0.677-0.558 1.179-0.337 2.365-0.671 3.569-0.888 0.523-0.094 1.121 0.024 1.648 0.175 2.378 0.683 4.743 1.413 7.113 2.126 0.298 0.090 0.46 0.245 0.41 0.6-0.080 0.56-0.114 1.128-0.18 1.828-0.762-0.162-1.494-0.311-2.222-0.475-1.674-0.376-3.344-0.767-5.020-1.133-0.173-0.038-0.395 0.015-0.559 0.097-0.663 0.335-1.308 0.708-1.97 1.046-0.318 0.163-0.375 0.336-0.26 0.696 0.6 1.874 1.149 3.763 1.748 5.637 0.058 0.182 0.311 0.389 0.505 0.429 1.798 0.362 3.603 0.69 5.515 1.049-0.554 1.363-0.691 2.762-0.394 4.252-2.91-0.186-5.764-0.563-8.608-0.497-2.849 0.067-5.688 0.578-8.658 0.908 0.909 0.708 1.732 1.327 2.531 1.977 0.879 0.715 1.866 1.313 2.443 2.357 0.552 0.997 0.722 2.055 0.657 3.169-0.005 0.090-0.071 0.175-0.134 0.321-0.772-0.505-1.52-0.992-2.263-1.484-2.823-1.873-5.638-3.755-8.469-5.617-1.755-1.155-1.386-3.459-0.041-4.16 0.638-0.333 1.402-0.458 2.125-0.59 1.326-0.241 2.665-0.418 3.998-0.623 0.715-0.11 1.43-0.224 2.144-0.341 0.129-0.021 0.254-0.063 0.466-0.117-0.15-0.284-0.266-0.521-0.399-0.748-0.863-1.49-1.735-2.974-2.588-4.471-0.187-0.328-0.404-0.469-0.793-0.473-1.023-0.013-2.046-0.097-3.068-0.112-0.271-0.004-0.599 0.065-0.81 0.223-1.686 1.254-3.357 2.527-5.016 3.819-0.326 0.253-0.494 0.298-0.714-0.107-0.252-0.462-0.579-0.882-0.908-1.372z"></path>
<path fill="currentColor" d="M16.198 0.476c1.494 0 2.649 1.084 3.040 2.766 0.271 1.166 0.232 2.282-0.226 3.393-0.534 1.293-1.482 1.932-2.814 1.186-1.449-0.812-2.615-1.841-3.007-3.56-0.472-2.075 0.869-3.786 3.007-3.786z"></path>
<path fill="currentColor" d="M39.609 21.732c0.056 2.415-2.057 4.404-4.406 4.304-2.65-0.112-4.234-2.089-4.219-4.324 0.018-2.623 1.935-4.305 4.335-4.34 2.526-0.038 4.404 2.169 4.29 4.361zM33.322 24.234c0.021 0.793 0.644 1.232 1.739 1.228 0.322-0.001 0.99-0.762 0.975-1.113-0.027-0.692-0.897-1.402-1.683-1.372-0.527 0.020-1.049 0.656-1.032 1.258zM31.547 21.639c0 1.151 0.324 1.56 1.242 1.568 0.434 0.004 1.13-0.769 1.127-1.25-0.007-0.797-0.56-1.501-1.18-1.506-0.703-0.005-1.187 0.479-1.187 1.187zM37.442 21.317c0.574 0 1.241-0.605 1.237-1.122-0.004-0.477-0.914-1.513-1.332-1.515-0.664-0.005-1.325 0.713-1.304 1.418 0.015 0.545 0.791 1.219 1.4 1.22zM38.031 21.802c-0.964 0.024-1.888 0.784-1.861 1.354 0.032 0.67 0.752 1.327 1.463 1.332 0.348 0.002 1.371-1.211 1.217-1.6-0.176-0.446-0.591-0.797-0.818-1.085zM33.080 19.277c0.024 0.601 0.626 1.285 1.12 1.27 0.798-0.024 1.55-0.812 1.489-1.56-0.030-0.369-0.676-0.997-1.019-0.991-0.94 0.018-1.619 0.565-1.59 1.281z"></path>
<path fill="currentColor" d="M40.493 20.834c1.455 0.272 2.822 0.527 4.189 0.782-0.238 1.5-3.049 3.085-4.592 2.458 0.134-0.521 0.321-1.035 0.387-1.564 0.067-0.535 0.015-1.084 0.015-1.676z"></path>
</svg>
