<!-- Generated by IcoMoon.io -->
<svg version="1.1" xmlns="http://www.w3.org/2000/svg" viewBox="4 0 43 43" width="0.9em">
<path fill="currentColor" d="M36.643 21.493c-0.6-1.126-1.192-2.24-1.78-3.352-0.874-1.631-1.753-3.26-2.62-4.894-0.063-0.119-0.094-0.317-0.039-0.425 0.439-0.854 0.904-1.695 1.415-2.641 0.503 0.648 0.966 1.23 1.413 1.824 2.244 2.983 4.473 5.977 6.732 8.947 0.357 0.469 0.419 0.749-0.038 1.225-1.99 2.073-3.926 4.198-5.882 6.305-0.453 0.488-1 0.922-1.327 1.484-0.299 0.514-0.391 1.16-0.522 1.759-0.383 1.749-0.741 3.503-1.105 5.257-0.085 0.406-0.195 0.813-0.215 1.223-0.026 0.57-0.381 0.879-0.783 1.176-1.598 1.185-3.192 2.375-4.801 3.547-0.113 0.082-0.36 0.095-0.485 0.027-2.197-1.185-4.353-2.453-6.588-3.558-0.961-0.474-0.943-1.286-1.109-2.053-0.395-1.825-0.724-3.666-1.077-5.5-0.039-0.203-0.079-0.408-0.096-0.614-0.065-0.804-0.567-1.313-1.132-1.819-2.521-2.259-5.021-4.54-7.533-6.81-0.254-0.229-0.527-0.437-0.802-0.639-0.305-0.225-0.369-0.411-0.059-0.724 3.030-3.056 6.048-6.125 9.065-9.195 0.464-0.472 0.904-0.968 1.422-1.526 0.543 0.81 1.054 1.548 1.525 2.31 0.061 0.098-0.054 0.357-0.152 0.492-1.972 2.694-3.954 5.38-5.932 8.068-0.021 0.027-0.023 0.070-0.064 0.207 0.665 0.295 1.338 0.612 2.024 0.895 1.967 0.814 3.953 1.584 5.9 2.444 0.44 0.194 0.773 0.661 1.121 1.032 1.416 1.509 2.819 3.030 4.268 4.593 0.305-0.453 0.597-0.862 0.864-1.286 0.858-1.36 1.692-2.736 2.573-4.080 0.197-0.299 0.522-0.541 0.837-0.729 1.585-0.953 3.187-1.88 4.782-2.818 0.062-0.037 0.117-0.087 0.207-0.154z"></path>
<path fill="currentColor" d="M19.575 7.71c-0.136-3.58 3.080-6.892 7.052-6.701 3.468 0.166 6.405 2.979 6.411 6.745 0.006 3.735-2.966 6.733-6.776 6.737-3.695 0.003-6.776-3.020-6.687-6.78zM25.85 13.73c0.014-0.051 0.029-0.103 0.042-0.154 0.405 0.098 0.587-0.133 0.831-0.417 0.656-0.768 0.785-1.522 0.279-2.428-0.189-0.337-0.352-0.589-0.737-0.677-0.366-0.085-0.719-0.259-1.086-0.288-0.309-0.024-0.648 0.059-0.937 0.182-0.253 0.107-0.469 0.319-0.672 0.515-0.169 0.162-0.416 0.368-0.418 0.557-0.007 0.581 0.085 1.161 0.147 1.742 0.005 0.038 0.082 0.080 0.134 0.099 0.805 0.293 1.612 0.581 2.417 0.87zM29.231 7.319c0.027-0.053 0.056-0.104 0.083-0.157 0.902 0.106 1.596-0.166 1.966-1.039 0.029-0.069 0.073-0.136 0.125-0.189 0.299-0.309 0.265-0.642 0.048-0.964-0.287-0.422-0.577-0.845-0.908-1.232-0.674-0.79-0.762-0.8-1.753-0.461-0.246 0.085-0.495 0.163-0.734 0.265-0.094 0.040-0.208 0.122-0.238 0.211-0.331 0.98-0.732 1.974 0.381 2.758 0.075 0.053 0.116 0.155 0.19 0.21 0.275 0.203 0.56 0.397 0.84 0.594zM22.816 3.93c-0.053 0.006-0.105 0.011-0.158 0.017 0.135 0.391 0.159 0.904 0.428 1.151 0.721 0.664 1.54 1.234 2.567 0.48 0.133-0.097 0.331-0.107 0.459-0.21 0.192-0.154 0.406-0.327 0.504-0.54 0.141-0.303 0.209-0.646 0.261-0.98 0.033-0.213 0.053-0.484-0.049-0.652-0.845-1.398-1.218-1.507-2.742-0.866-0.155 0.065-0.308 0.137-0.463 0.202-0.612 0.255-1.054 0.613-0.807 1.396zM31.885 9.479c-0.244-0.31-0.498-0.679-0.801-1.002-0.194-0.208-0.446-0.471-0.696-0.501-1.039-0.124-1.956 0.078-2.38 1.215-0.065 0.174-0.206 0.318-0.298 0.482-0.053 0.095-0.124 0.211-0.109 0.308 0.173 1.142 0.769 1.752 1.961 2.008 0.211 0.046 0.512 0.144 0.638 0.046 0.816-0.632 1.322-1.493 1.685-2.555zM20.466 7.77c0.129 1.933-0.071 1.789 1.662 2.227 0.43 0.109 0.662-0.039 0.962-0.257 0.648-0.467 1.117-0.904 0.996-1.879-0.096-0.781-0.248-1.337-0.973-1.671-0.152-0.071-0.277-0.203-0.43-0.27-0.15-0.065-0.325-0.127-0.481-0.111-1.284 0.134-1.753 0.673-1.737 1.961z"></path>
<path fill="currentColor" d="M26.133 15.586c2.080 0.11 3.876 1.135 4.313 3.285 0.5 2.465-0.023 4.719-1.937 6.489-0.945 0.873-2.136 0.953-3.174 0.183-1.448-1.076-2.675-2.35-3.159-4.174-0.506-1.906-0.13-4.019 1.845-5.060 0.652-0.343 1.407-0.488 2.115-0.724z"></path>
</svg>
