<!-- Generated by IcoMoon.io -->
<svg version="1.1" xmlns="http://www.w3.org/2000/svg" viewBox="0 0 42 42">
    <path fill="currentColor" d="M17.235 11.942c0.638-0.808 1.232-1.539 1.802-2.291 0.249-0.329 0.507-0.576 0.956-0.465 0.019 0.005 0.038 0 0.058 0 2.25 0.016 2.24 0.024 3.614 1.797 0.533 0.688 1.136 1.321 1.687 1.995 0.214 0.263 0.416 0.25 0.698 0.129 1.148-0.489 2.304-0.959 3.458-1.432 0.069-0.028 0.145-0.035 0.29-0.068 0.148 0.418 0.364 0.819 0.404 1.238 0.017 0.185-0.287 0.456-0.504 0.599-1.556 1.032-3.126 2.041-4.766 3.107-1.151-0.981-2.32-1.977-3.643-3.104-0.262 0.885-0.535 1.641-0.695 2.42-0.072 0.356 0.021 0.781 0.149 1.133 0.099 0.271 0.322 0.575 0.572 0.7 2.114 1.068 4.245 2.103 6.376 3.135 0.363 0.176 0.498 0.336 0.321 0.781-1.067 2.691-2.091 5.399-3.146 8.095-0.056 0.143-0.258 0.312-0.404 0.322-0.536 0.038-1.076 0.015-1.681 0.015 0.109-0.627 0.202-1.204 0.31-1.778 0.321-1.717 0.655-3.432 0.955-5.153 0.022-0.129-0.154-0.39-0.287-0.434-1.712-0.557-3.448-1.044-5.145-1.639-1.072-0.376-2.015-0.101-3.015 0.23-1.595 0.529-3.216 0.982-4.878 1.483 0.206 1.084 0.405 2.132 0.604 3.18 0.236 1.245 0.478 2.489 0.695 3.737 0.017 0.099-0.147 0.236-0.242 0.341-0.027 0.029-0.112 0.004-0.17 0.006-1.499 0.054-1.493 0.051-2.036-1.353-0.898-2.324-1.795-4.65-2.719-6.964-0.194-0.488-0.090-0.704 0.38-0.928 1.997-0.949 3.97-1.949 5.961-2.91 0.368-0.177 0.533-0.415 0.517-0.808-0.006-0.135-0.017-0.275 0.005-0.406 0.062-0.358 0.27-0.748 0.186-1.063-0.179-0.676-0.506-1.314-0.811-2.062-0.212 0.162-0.376 0.273-0.525 0.403-0.911 0.781-1.821 1.564-2.725 2.353-0.206 0.179-0.369 0.279-0.652 0.088-1.485-1.003-2.979-1.992-4.484-2.963-0.396-0.256-0.681-0.461-0.326-0.972 0.154-0.221 0.178-0.533 0.283-0.876 1.173 0.482 2.283 0.932 3.389 1.393 0.795 0.332 0.797 0.326 1.357-0.334 0.915-1.076 1.837-2.147 2.773-3.206 0.109-0.124 0.313-0.193 0.484-0.227 0.186-0.037 0.386 0 0.579 0q1.955 0.002 3.124 1.609c0.269 0.369 0.549 0.731 0.863 1.147z"></path>
    <path fill="currentColor" d="M14.283 5.020c0.015-1.46 0.596-2.379 1.816-2.865 1.189-0.472 2.595-0.198 3.412 0.825 0.371 0.465 0.66 1.126 0.685 1.713 0.062 1.43-0.485 2.674-1.599 3.623-0.739 0.629-1.784 0.695-2.559 0.105-1.115-0.849-1.741-1.975-1.756-3.401z"></path>
    <path fill="currentColor" d="M36.676 18.687c-0.119 0.026-0.238 0.073-0.357 0.072-3.118-0.007-6.238-0.010-9.356-0.038-0.364-0.004-0.726-0.141-1.090-0.216-0.013-0.088-0.024-0.177-0.037-0.264 0.519-0.171 1.036-0.477 1.557-0.488 2.382-0.049 4.768-0.072 7.146 0.027 0.734 0.030 1.451 0.477 2.176 0.732-0.013 0.058-0.026 0.118-0.038 0.176z"></path>
    <path fill="currentColor" d="M40.681 20.744c-1.851 0-3.702 0.002-5.554 0-1.587-0.002-3.175 0-4.762-0.026-0.176-0.002-0.355-0.165-0.522-0.269-0.332-0.206-0.656-0.424-0.947-0.753 0.351 0.015 0.703 0.044 1.054 0.044 2.884 0.002 5.771-0.054 8.653 0.034 0.728 0.022 1.442 0.498 2.163 0.766-0.028 0.069-0.057 0.136-0.085 0.205z"></path>
    <path fill="currentColor" d="M38.762 12.777c-0.294 0-0.518 0-0.742 0-1.879 0-3.758 0-5.639 0.002-0.785 0-0.902-0.105-0.986-0.997 0.196-0.012 0.391-0.034 0.588-0.035 1.821-0.002 3.643-0.001 5.464-0.001 0.884 0 0.925 0.029 1.315 1.031z"></path>
    <path fill="currentColor" d="M34.152 16.773h-6.935c0.64-0.51 1.118-1.016 1.803-1.039 1.529-0.052 3.060-0.028 4.59-0.022 0.518 0.002 0.628 0.223 0.542 1.062z"></path>
    <path fill="currentColor" d="M35.451 13.763h6.986c-0.441 0.454-0.848 0.981-1.507 0.999-1.394 0.038-2.789 0.015-4.184 0.010-0.45-0.001-1.074-0.486-1.296-1.009z"></path>
    <path fill="currentColor" d="M30.752 4.836c-0.812 0-1.625 0.019-2.435-0.015-0.166-0.007-0.478-0.264-0.46-0.32 0.085-0.258-0.079-0.691 0.478-0.682 1.623 0.027 3.249 0.013 4.872 0 0.45-0.004 0.485 0.301 0.518 0.612 0.043 0.41-0.251 0.407-0.536 0.407-0.812 0-1.624 0-2.436 0z"></path>
    <path fill="currentColor" d="M30.766 5.773c0.714 0 1.429-0.017 2.143 0.009 0.223 0.008 0.602 0.091 0.633 0.213 0.108 0.407-0.297 0.844-0.705 0.846-0.888 0.005-1.777 0-2.665-0.002-0.521 0-1.045 0.022-1.563-0.015-0.165-0.012-0.389-0.149-0.465-0.292-0.386-0.723-0.337-0.774 0.479-0.76 0.714 0.012 1.429 0.002 2.143 0.002z"></path>
    <path fill="currentColor" d="M31.777 10.755c0.351-0.723 0.798-1.083 1.614-1.008 0.922 0.086 1.863 0.081 2.785 0 0.78-0.069 1.122 0.307 1.366 1.007h-5.765z"></path>
    <path fill="currentColor" d="M34.817 21.748h6.563c-0.098 0.887-0.244 1.018-1.023 0.989-0.425-0.016-0.855-0.060-1.274-0.009-1.529 0.188-2.875-0.468-4.284-0.831 0.006-0.050 0.012-0.1 0.019-0.15z"></path>
    <path fill="currentColor" d="M29.353 10.194c-1.21 0.868-2.547 0.636-3.827 0.579-0.35-0.015-0.678-0.518-1.017-0.797 0.027-0.051 0.055-0.102 0.081-0.154 0.121-0.020 0.241-0.057 0.362-0.057 1.235-0.004 2.469 0.005 3.704-0.005 0.335-0.002 0.608 0.042 0.698 0.432z"></path>
    <path fill="currentColor" d="M30.302 14.773c1.264-1.416 2.826-1.002 4.296-1.034 0.095 0.744-0.136 1.033-0.806 1.033-1.136 0-2.27 0-3.489 0z"></path>
    <path fill="currentColor" d="M37.387 24.784c-0.077-1.026 0.005-1.11 0.903-1.101 0.638 0.007 1.278 0.015 1.913-0.029 0.419-0.029 0.521 0.060 0.38 0.475-0.163 0.482-0.4 0.717-0.96 0.67-0.744-0.062-1.496-0.015-2.237-0.015z"></path>
    <path fill="currentColor" d="M39.897 25.715c-0.255 1.019-0.273 1.034-1.179 1.032-0.539 0-1.076 0-1.608 0-0.282-0.792-0.124-1.032 0.661-1.032 0.692 0 1.386 0 2.126 0z"></path>
    <path fill="currentColor" d="M32.611 7.834c-1.14 1.267-2.588 1.262-3.645 0h3.645z"></path>
    <path fill="currentColor" d="M32.836 2.825h-4.099c0.756-1.186 3.308-1.087 4.099 0z"></path>
    <path fill="currentColor" d="M39.061 27.695c-0.079 0.902-0.219 1.045-0.938 1.046-0.347 0-0.699 0.033-1.040-0.014-0.17-0.023-0.462-0.205-0.453-0.287 0.033-0.289-0.052-0.725 0.434-0.74 0.653-0.020 1.307-0.005 1.997-0.005z"></path>
    <path fill="currentColor" d="M43.782 12.716h-2.972c0.048-0.072 0.077-0.18 0.141-0.206 0.62-0.254 1.236-0.527 1.873-0.731 0.781-0.249 0.673 0.474 0.958 0.938z"></path>
    <path fill="currentColor" d="M39.438 15.747c-0.614 0.926-1.166 0.928-1.714 0h1.714z"></path>
    <path fill="currentColor" d="M38.403 29.755c-0.37 0.411-1.658 0.427-2.167 0h2.167z"></path>
</svg>
