<!-- Generated by IcoMoon.io -->
<svg role = "img" xmlns="http://www.w3.org/2000/svg" viewBox="0 0 42 42">
<path fill="currentColor" d="M15.716 35.409c-4.095-4.097-8.151-8.155-12.218-12.225 0.050-0.053 0.141-0.155 0.236-0.251 3.242-3.243 6.49-6.483 9.722-9.737 0.303-0.305 0.473-0.298 0.775-0.008 1.516 1.451 1.524 1.443 1.524 3.56-0.001 6.144-0.003 12.289-0.006 18.433 0 0.064-0.019 0.127-0.034 0.228z"></path>
<path fill="currentColor" d="M44.502 18.899c-0.381 0.359-0.718 0.691-1.070 1.007-1.273 1.142-2.547 2.282-3.83 3.413-0.096 0.084-0.271 0.153-0.389 0.128-1.276-0.265-2.546-0.555-3.822-0.823-0.131-0.028-0.319-0.009-0.416 0.069-1.353 1.093-2.694 2.2-4.108 3.362 0.68 0.587 1.323 1.139 1.961 1.695 0.928 0.808 1.875 1.596 2.774 2.436 0.844 0.79 0.656 2.143-0.366 2.814-1.904 1.25-3.824 2.476-5.725 3.729-0.317 0.21-0.474 0.139-0.644-0.16-0.337-0.596-0.24-1.259 0.313-1.868 0.828-0.911 1.663-1.815 2.492-2.725 0.202-0.222 0.389-0.457 0.615-0.723-1.337-0.764-2.598-1.486-3.861-2.207-0.662-0.379-1.349-0.722-1.981-1.145-1.070-0.718-1.315-1.974-0.714-3.105 0.338-0.635 0.933-0.74 1.522-0.883 0.565-0.138 1.136-0.248 1.705-0.372-0.008-0.041-0.016-0.082-0.025-0.122h-10.7c-0.007-0.042-0.013-0.084-0.021-0.126 0.616-0.102 1.23-0.211 1.848-0.304 2.485-0.377 4.965-0.826 7.463-1.090 1.245-0.131 1.512-1.177 2.342-1.81-0.84-0.618-1.58-1.191-2.356-1.708-0.144-0.096-0.455-0.007-0.661 0.070-1.266 0.473-2.521 0.974-3.79 1.441-0.125 0.046-0.374-0.017-0.457-0.119-0.715-0.869-0.694-0.961 0.302-1.512 1.366-0.756 2.73-1.517 4.114-2.238 0.217-0.113 0.574-0.116 0.804-0.019 1.594 0.667 3.175 1.367 4.749 2.077 0.183 0.082 0.347 0.269 0.455 0.447 0.387 0.639 0.774 1.282 1.106 1.95 0.21 0.423 0.423 0.408 0.744 0.161 0.188-0.145 0.428-0.233 0.59-0.401 0.523-0.542 1.062-0.507 1.674-0.159 0.425 0.241 0.903 0.389 1.332 0.626 0.44 0.241 0.789 0.219 1.2-0.099 1.091-0.843 2.227-1.628 3.32-2.469 0.323-0.248 0.526-0.215 0.776 0.060 0.217 0.236 0.46 0.447 0.732 0.707z"></path>
<path fill="currentColor" d="M14.408 12.389c3.586-3.586 7.087-7.088 10.699-10.701 0.493 0.539 1.032 1.11 1.539 1.71 0.066 0.077 0.012 0.357-0.080 0.45-1.925 1.943-3.866 3.871-5.797 5.808-1.364 1.368-2.729 2.735-4.069 4.126-0.337 0.349-0.539 0.337-0.858-0.011-0.448-0.489-0.955-0.925-1.434-1.38z"></path>
<path fill="currentColor" d="M24.845 25.815c-0.175 1.476 0.476 2.426 1.822 3.075-0.544 0.456-1.026 0.871-1.52 1.273-2.158 1.756-4.32 3.507-6.477 5.265-0.477 0.388-0.56 0.383-0.901-0.132-0.381-0.577-0.291-1.289 0.231-1.868 0.549-0.61 1.124-1.2 1.63-1.844 0.424-0.539 1.053-0.495 1.598-0.68 0.537-0.182 1.098-0.293 1.648-0.434-0.005-0.041-0.010-0.082-0.015-0.124-1.732-0.103-3.463-0.205-5.195-0.308-0.006-0.039-0.012-0.078-0.019-0.118 0.586-0.155 1.171-0.312 1.758-0.464 0.849-0.221 1.706-0.42 2.547-0.668 0.21-0.062 0.396-0.254 0.555-0.423 0.787-0.843 1.56-1.699 2.339-2.55z"></path>
<path fill="currentColor" d="M26.821 4.454c0.014 0.304 0.028 0.451 0.028 0.598 0.001 2.823-0.005 5.646 0.008 8.469 0.002 0.334-0.097 0.527-0.394 0.683-0.733 0.383-1.449 0.798-2.232 1.233-0.023-0.185-0.050-0.308-0.050-0.431-0.002-2.515-0.004-5.029 0.003-7.545 0-0.158 0.024-0.364 0.122-0.465 0.791-0.822 1.602-1.624 2.515-2.54z"></path>
<path fill="currentColor" d="M35.529 14.033c1.315 0.025 2.252 1.171 1.89 2.461-0.136 0.482-0.321 0.965-0.576 1.395-0.634 1.071-1.73 1.193-2.593 0.297-0.654-0.68-0.948-1.52-0.857-2.464 0.098-0.995 1.012-1.701 2.136-1.688z"></path>
</svg>
