<!-- Generated by IcoMoon.io -->
<svg version="1.1" xmlns="http://www.w3.org/2000/svg" viewBox="0 0 52 48">
<path fill = "currentColor" d="M45.523 6.030c-0.033 0.048-0.070 0.094-0.098 0.146-6.441 11.883-12.88 23.767-19.32 35.65-0.028 0.051-0.058 0.102-0.1 0.175-6.505-12.005-12.998-23.987-19.501-35.989 0.065-0.004 0.112-0.009 0.159-0.009 12.923 0 25.847 0 38.77 0 0.030 0 0.060-0.002 0.090-0.003v0.030zM24.93 30.604h4.114v-20.918h-3.396c-0.013 0.051-0.025 0.098-0.038 0.146-0.069 0.256-0.103 0.529-0.213 0.766-0.445 0.957-1.247 1.438-2.264 1.544-0.577 0.060-1.165 0.025-1.747 0.032-0.059 0.001-0.118 0-0.183 0v3.329h3.727v15.102z"></path>
</svg>
