<!-- Generated by IcoMoon.io -->
<svg version="1.1" xmlns="http://www.w3.org/2000/svg" viewBox="0 0 48 48">
<path fill = "currentColor" d="M2.663 0.779l-1.020 1.761c-0.187 0.3-0.428 0.724-0.657 1.154l-0.068 0.14c-0.037 0.089 0.179 0.255 0.728 0.566 2.265 1.275 5.023 2.48 7.738 3.38l1.384 0.457v31.752l-1.258 0.411c-2.49 0.815-5.294 2.023-7.48 3.221-0.771 0.424-1.149 0.676-1.119 0.755 0.069 0.179 2.003 3.516 2.093 3.609 0.046 0.050 0.281-0.033 0.586-0.202 4.838-2.728 10.528-4.566 16.587-5.136l0.17-0.013c1.48-0.142 5.851-0.142 7.33 0 6.036 0.586 11.565 2.284 16.757 5.149 0.305 0.169 0.54 0.251 0.586 0.202 0.232-0.238 2.136-3.682 2.069-3.741-0.285-0.179-0.669-0.4-1.061-0.609l-0.115-0.056c-2.079-1.142-4.525-2.217-7.068-3.081l-0.332-0.098-1.258-0.411v-31.752l1.384-0.457c1.698-0.563 3.129-1.129 4.877-1.933 1.232-0.57 3.169-1.573 3.509-1.824 0.132-0.096 0.033-0.301-0.891-1.907-0.504-0.902-0.869-1.513-1.245-2.116l0.142 0.246c-0.037-0.037-0.838 0.328-1.781 0.811-4.353 2.29-9.431 3.88-14.811 4.469l-0.19 0.017c-1.92 0.212-6.556 0.212-8.476 0-5.568-0.606-10.644-2.195-15.23-4.595l0.235 0.112c-0.94-0.48-1.722-0.877-1.738-0.877-0.132 0.173-0.257 0.368-0.366 0.573l-0.011 0.023zM18.274 9.798c1.967 0.245 3.847 0.364 5.738 0.364 2.569 0 5.857-0.288 8.013-0.699l0.818-0.156v29.606l-1.172-0.199c-2.302-0.401-4.953-0.631-7.658-0.631s-5.356 0.229-7.935 0.67l0.277-0.039-1.172 0.199v-29.606l0.818 0.156c0.45 0.086 1.473 0.235 2.275 0.335z"></path>
</svg>
